# Blender v2.78 (sub 0) OBJ File: ''
# www.blender.org
o Cube
v 4.371923 0.082087 -3.062460
v 4.371923 0.082087 3.062461
v -4.371924 0.082087 3.062460
v -4.371922 0.082087 -3.062462
v 4.371925 3.780531 -3.062459
v 4.371921 3.780531 3.062463
v -4.371925 3.780531 3.062459
v -4.371923 3.780531 -3.062461
v 4.371925 3.780531 -3.062459
v 4.371921 3.780531 3.062463
v -4.371923 3.780531 -3.062461
v -4.371925 3.780531 3.062459
v 4.371923 6.701183 0.000002
v -4.371924 6.701183 -0.000001
vn 0.0000 -1.0000 0.0000
vn 0.0000 0.0000 1.0000
vn 1.0000 -0.0000 0.0000
vn -1.0000 -0.0000 -0.0000
vn 0.0000 0.0000 -1.0000
vn 0.0000 0.7237 -0.6902
vn -0.0000 0.7237 0.6902
s off
f 2//1 4//1 1//1
f 8//2 12//2 11//2
f 5//3 2//3 1//3
f 6//2 3//2 2//2
f 3//4 8//4 4//4
f 1//5 8//5 5//5
f 5//2 11//2 9//2
f 7//2 10//2 12//2
f 6//2 9//2 10//2
f 13//6 11//6 14//6
f 10//3 9//3 13//3
f 11//4 12//4 14//4
f 10//7 14//7 12//7
f 2//1 3//1 4//1
f 8//2 7//2 12//2
f 5//3 6//3 2//3
f 6//2 7//2 3//2
f 3//4 7//4 8//4
f 1//5 4//5 8//5
f 5//2 8//2 11//2
f 7//2 6//2 10//2
f 6//2 5//2 9//2
f 13//6 9//6 11//6
f 10//7 13//7 14//7
